<?xml version="1.0" encoding="UTF-8"?>
<svg version="1.1" xmlns="http://www.w3.org/2000/svg" width="100" height="60">
<path d="M0 0 C4.04142215 -0.11662261 8.08240865 -0.1873935 12.125 -0.25 C13.26710938 -0.28351563 14.40921875 -0.31703125 15.5859375 -0.3515625 C22.21980819 -0.42870053 25.84038945 -0.18703221 31 4 C32.32 4 33.64 4 35 4 C35.62165039 3.34805664 36.24330078 2.69611328 36.88378906 2.02441406 C39.65257632 -0.6242689 41.08423095 -0.46766876 44.859375 -0.390625 C45.97441406 -0.37773438 47.08945313 -0.36484375 48.23828125 -0.3515625 C49.97658203 -0.30128906 49.97658203 -0.30128906 51.75 -0.25 C53.51150391 -0.22292969 53.51150391 -0.22292969 55.30859375 -0.1953125 C58.2065534 -0.1481912 61.10286418 -0.08241305 64 0 C64 0.66 64 1.32 64 2 C63.01 2.33 62.02 2.66 61 3 C60.67 3.99 60.34 4.98 60 6 C59.01 6 58.02 6 57 6 C56.67 6.99 56.34 7.98 56 9 C54.78763672 8.93039062 54.78763672 8.93039062 53.55078125 8.859375 C46.8209817 8.50107099 46.8209817 8.50107099 40.75 11 C39.88375 11.99 39.88375 11.99 39 13 C39.495 15.97 39.495 15.97 40 19 C40.72445312 18.73445313 41.44890625 18.46890625 42.1953125 18.1953125 C45.12796197 17.12391789 48.0636281 16.06114405 51 15 C52.134375 14.5875 53.26875 14.175 54.4375 13.75 C57 13 57 13 61 13 C60.67 15.31 60.34 17.62 60 20 C56.7 21.32 53.4 22.64 50 24 C51.06541016 24.74443359 51.06541016 24.74443359 52.15234375 25.50390625 C59.56997395 30.98650249 59.56997395 30.98650249 60.88671875 34.08984375 C61.125 36 61.125 36 61 39 C57.14495324 42.34221944 54.5467529 42.45268429 49.59375 42.28515625 C42.65432366 41.52223739 38.04910413 38.67042132 33 34 C33 34.66 33 35.32 33 36 C31.390625 37.25390625 31.390625 37.25390625 29.25 38.5625 C28.55390625 38.99691406 27.8578125 39.43132813 27.140625 39.87890625 C23.53924879 41.76502846 20.30310145 42.12719974 16.26953125 42.1328125 C14.94211914 42.13474609 14.94211914 42.13474609 13.58789062 42.13671875 C12.67201172 42.13285156 11.75613281 42.12898438 10.8125 42.125 C9.88501953 42.12886719 8.95753906 42.13273437 8.00195312 42.13671875 C7.12087891 42.13542969 6.23980469 42.13414063 5.33203125 42.1328125 C4.12123901 42.13112061 4.12123901 42.13112061 2.88598633 42.12939453 C1 42 1 42 0 41 C-0.53794742 37.14471014 -0.27144988 35.41622315 1.875 32.125 C5.7811419 27.89976482 10.46432464 24.51106956 15 21 C16.87748952 19.5031172 18.75259391 18.00323666 20.625 16.5 C22.08333333 15.33333333 23.54166667 14.16666667 25 13 C24.00735621 11.37185115 24.00735621 11.37185115 22 10 C19.20748417 9.62325482 16.61220799 9.39808059 13.8125 9.3125 C13.06291016 9.27833984 12.31332031 9.24417969 11.54101562 9.20898438 C9.69453162 9.12665706 7.84729006 9.06164719 6 9 C5.67 8.01 5.34 7.02 5 6 C4.01 5.67 3.02 5.34 2 5 C2 4.34 2 3.68 2 3 C1.34 2.67 0.68 2.34 0 2 C0 1.34 0 0.68 0 0 Z M6 2 C6 2.33 6 2.66 6 3 C8.97 3 11.94 3 15 3 C15 2.67 15 2.34 15 2 C12.03 2 9.06 2 6 2 Z M48 2 C48 2.33 48 2.66 48 3 C51.3 3 54.6 3 58 3 C58 2.67 58 2.34 58 2 C54.7 2 51.4 2 48 2 Z M28 22 C26.18401175 23.45398729 24.37230481 24.91332325 22.5625 26.375 C21.55316406 27.18710937 20.54382813 27.99921875 19.50390625 28.8359375 C16.96471245 30.75034341 16.96471245 30.75034341 16 33 C21.59001458 32.77639942 24.20339831 31.46652565 28.03125 27.66796875 C29.23596838 25.99681984 29.23596838 25.99681984 28.65625 23.80078125 C28.4396875 23.20652344 28.223125 22.61226562 28 22 Z " fill="#8D92BE" transform="translate(19,3)"/>
<path d="M0 0 C1.92035201 1.80065527 2.95478464 2.88545441 3.9375 5.375 C4 8 4 8 2.625 10.375 C-0.97032656 13.97032656 -4.92415101 16.97181642 -9 20 C-10.05767578 20.82371094 -10.05767578 20.82371094 -11.13671875 21.6640625 C-14.67898869 24.20380321 -17.55637156 24.05090818 -21.8125 23.5625 C-22.864375 23.376875 -23.91625 23.19125 -25 23 C-23.43783411 18.82120624 -20.35604785 16.48521498 -17 13.75 C-16.42419189 13.27199951 -15.84838379 12.79399902 -15.25512695 12.30151367 C-10.22172624 8.13749957 -5.13137693 4.04255203 0 0 Z " fill="#E3446F" transform="translate(45,15)"/>
<path d="M0 0 C-0.33 2.31 -0.66 4.62 -1 7 C-4.3 8.32 -7.6 9.64 -11 11 C-10.01 11.721875 -9.02 12.44375 -8 13.1875 C-5.05206503 15.6095123 -5.05206503 15.6095123 -4.625 18.8125 C-4.74875 19.534375 -4.8725 20.25625 -5 21 C-9.00570498 21.68182212 -10.96641391 21.64272046 -14.46875 19.46484375 C-20.61262941 14.41947442 -20.61262941 14.41947442 -21.5703125 10.91015625 C-21.5625 9 -21.5625 9 -21 6 C-17.33671014 4.65722827 -13.66937804 3.32603731 -10 2 C-8.2984375 1.38125 -8.2984375 1.38125 -6.5625 0.75 C-4 0 -4 0 0 0 Z " fill="#87287D" transform="translate(80,16)"/>
<path d="M0 0 C1.74796875 0.04060547 1.74796875 0.04060547 3.53125 0.08203125 C6.39774172 0.15251875 9.26040655 0.25100539 12.125 0.375 C12.125 1.035 12.125 1.695 12.125 2.375 C11.135 2.705 10.145 3.035 9.125 3.375 C8.795 4.365 8.465 5.355 8.125 6.375 C7.135 6.375 6.145 6.375 5.125 6.375 C4.795 7.365 4.465 8.355 4.125 9.375 C2.91263672 9.30539062 2.91263672 9.30539062 1.67578125 9.234375 C-5.0540183 8.87607099 -5.0540183 8.87607099 -11.125 11.375 C-11.7025 12.035 -12.28 12.695 -12.875 13.375 C-15.86824263 12.2774777 -16.72110901 11.69817108 -18.125 8.75 C-18.3725 7.96625 -18.62 7.1825 -18.875 6.375 C-13.56397974 -0.82606306 -8.52543401 -0.37527305 0 0 Z M-3.875 2.375 C-3.875 2.705 -3.875 3.035 -3.875 3.375 C-0.575 3.375 2.725 3.375 6.125 3.375 C6.125 3.045 6.125 2.715 6.125 2.375 C2.825 2.375 -0.475 2.375 -3.875 2.375 Z " fill="#EA6348" transform="translate(70.875,2.625)"/>
<path d="M0 0 C0.66 -0.33 1.32 -0.66 2 -1 C4.01927511 -0.39421747 6.02253397 0.26919734 8 1 C8 0.34 8 -0.32 8 -1 C10.0836309 -0.85848172 12.16689938 -0.71162064 14.25 -0.5625 C15.99023438 -0.44068359 15.99023438 -0.44068359 17.765625 -0.31640625 C20.30977376 -0.06752213 22.55953248 0.28114942 25 1 C25 2.65 25 4.3 25 6 C13.12 6 1.24 6 -11 6 C-11 4.02 -11 2.04 -11 0 C-7.17206387 -1.37805701 -3.94751261 -0.58481668 0 0 Z " fill="#E8595B" transform="translate(13,50)"/>
<path d="M0 0 C0.99 0.144375 1.98 0.28875 3 0.4375 C4.3332405 0.62565894 5.66657975 0.81311913 7 1 C7.99 1.14308594 7.99 1.14308594 9 1.2890625 C13.3771563 1.88750184 17.58223072 2.09203686 22 2 C22 3.65 22 5.3 22 7 C12.1 7 2.2 7 -8 7 C-8 5.02 -8 3.04 -8 1 C-5.36 1.33 -2.72 1.66 0 2 C0 1.34 0 0.68 0 0 Z " fill="#E75462" transform="translate(76,49)"/>
<path d="M0 0 C0.33 1.65 0.66 3.3 1 5 C-7.91 5 -16.82 5 -26 5 C-26.33 3.35 -26.66 1.7 -27 0 C-23.84800117 -0.85963605 -21.83060046 -0.97228008 -18.5625 -0.4375 C-15.05408569 0.26963694 -15.05408569 0.26963694 -12.125 -1.0625 C-7.72309143 -2.38307257 -4.32840741 -1.25042881 0 0 Z " fill="#E95C57" transform="translate(66,51)"/>
<path d="M0 0 C0.66 -0.33 1.32 -0.66 2 -1 C4.01927511 -0.39421747 6.02253397 0.26919734 8 1 C8 0.34 8 -0.32 8 -1 C10.0836309 -0.85848172 12.16689938 -0.71162064 14.25 -0.5625 C15.99023438 -0.44068359 15.99023438 -0.44068359 17.765625 -0.31640625 C20.30977376 -0.06752213 22.55953248 0.28114942 25 1 C25 1.66 25 2.32 25 3 C13.12 3 1.24 3 -11 3 C-11 2.01 -11 1.02 -11 0 C-7.17206387 -1.37805701 -3.94751261 -0.58481668 0 0 Z " fill="#E44078" transform="translate(13,50)"/>
<path d="M0 0 C0.99 5.28 1.98 10.56 3 16 C-4.875 10.125 -4.875 10.125 -6 9 C-6.04092937 6.66702567 -6.04241723 4.33294775 -6 2 C-2.25 0 -2.25 0 0 0 Z " fill="#B01F7C" transform="translate(65,20)"/>
<path d="M0 0 C0.33 0.66 0.66 1.32 1 2 C-8.24 2.33 -17.48 2.66 -27 3 C-26.67 1.68 -26.34 0.36 -26 -1 C-24.91332031 -0.85691406 -24.91332031 -0.85691406 -23.8046875 -0.7109375 C-17.76209384 0.07036847 -17.76209384 0.07036847 -11.875 -1.0625 C-7.72944294 -2.41431208 -4.04126166 -1.53142547 0 0 Z " fill="#E44375" transform="translate(66,51)"/>
<path d="M0 0 C-0.33 2.31 -0.66 4.62 -1 7 C-2.98 7.66 -4.96 8.32 -7 9 C-7.33 6.69 -7.66 4.38 -8 2 C-4.91190305 0.23537317 -3.76687864 0 0 0 Z " fill="#30327D" transform="translate(80,16)"/>
<path d="M0 0 C5.94 0 11.88 0 18 0 C18 0.66 18 1.32 18 2 C17.01 2.33 16.02 2.66 15 3 C14.67 3.99 14.34 4.98 14 6 C13.67 4.68 13.34 3.36 13 2 C9.04 2 5.08 2 1 2 C0.67 1.34 0.34 0.68 0 0 Z " fill="#ED7332" transform="translate(65,3)"/>
<path d="M0 0 C3.96 0.33 7.92 0.66 12 1 C11.67 1.99 11.34 2.98 11 4 C6.38 4 1.76 4 -3 4 C-2.67 3.34 -2.34 2.68 -2 2 C-1.34 2 -0.68 2 0 2 C0 1.34 0 0.68 0 0 Z " fill="#F08252" transform="translate(64,8)"/>
<path d="M0 0 C1.0725 0.165 2.145 0.33 3.25 0.5 C7.03028752 1.08810915 7.03028752 1.08810915 11 1 C11 1.66 11 2.32 11 3 C1.595 3.495 1.595 3.495 -8 4 C-8 3.01 -8 2.02 -8 1 C-5.36 1.33 -2.72 1.66 0 2 C0 1.34 0 0.68 0 0 Z " fill="#E33E7A" transform="translate(76,49)"/>
<path d="M0 0 C5.61 0 11.22 0 17 0 C16.67 0.66 16.34 1.32 16 2 C12.04 2 8.08 2 4 2 C3.67 3.32 3.34 4.64 3 6 C2.67 5.01 2.34 4.02 2 3 C1.34 2.67 0.68 2.34 0 2 C0 1.34 0 0.68 0 0 Z " fill="#A16BA7" transform="translate(19,3)"/>
<path d="M0 0 C0.33 2.31 0.66 4.62 1 7 C-0.32 7.33 -1.64 7.66 -3 8 C-3.33 5.69 -3.66 3.38 -4 1 C-2 0 -2 0 0 0 Z " fill="#5F2B7D" transform="translate(72,18)"/>
<path d="M0 0 C6.93 0 13.86 0 21 0 C21 0.99 21 1.98 21 3 C19.948125 2.855625 18.89625 2.71125 17.8125 2.5625 C11.89515692 1.81616844 5.94733899 1.42610508 0 1 C0 0.67 0 0.34 0 0 Z " fill="#E85562" transform="translate(46,53)"/>
<path d="M0 0 C3.96 0 7.92 0 12 0 C11.67 1.32 11.34 2.64 11 4 C7.04 3.67 3.08 3.34 -1 3 C-0.67 2.01 -0.34 1.02 0 0 Z " fill="#EA595A" transform="translate(66,5)"/>
<path d="M0 0 C2 1.25 2 1.25 4 3 C4 4.32 4 5.64 4 7 C3.01 7 2.02 7 1 7 C0.67 4.69 0.34 2.38 0 0 Z " fill="#662C7E" transform="translate(71,29)"/>
<path d="M0 0 C2.83374881 3.20336822 3.5205537 5.78087253 4 10 C2 8.9375 2 8.9375 0 7 C-0.25 3.3125 -0.25 3.3125 0 0 Z " fill="#D70D75" transform="translate(59,22)"/>
<path d="M0 0 C0.33 0 0.66 0 1 0 C1.33 3.3 1.66 6.6 2 10 C1.01 10.33 0.02 10.66 -1 11 C-1.125 3.375 -1.125 3.375 0 0 Z " fill="#84B6D3" transform="translate(57,20)"/>
<path d="M0 0 C2.3431213 0.25561323 4.67843403 0.59270772 7 1 C7.33 1.66 7.66 2.32 8 3 C5.36 3.33 2.72 3.66 0 4 C0 2.68 0 1.36 0 0 Z " fill="#9484B6" transform="translate(23,5)"/>
</svg>
